<?xml version="1.0" encoding="UTF-8" standalone="yes"?>
<!DOCTYPE svg PUBLIC "-//W3C//DTD SVG 1.1//EN" "http://www.w3.org/Graphics/SVG/1.1/DTD/svg11.dtd">

<svg width="495" height="433" viewBox="0 0 495 433" xmlns="http://www.w3.org/2000/svg" xmlns:xlink="http://www.w3.org/1999/xlink" version="1.1" baseProfile="full">
    <g transform="scale(1.000000,-1.000000) translate(0,-433)">
        <path d="M 1.000000 1.000000 L 496.000000 1.000000 L 496.000000 434.000000 L 1.000000 434.000000 Z" transform="scale(1.000000,1.000000) translate(-1.000000,-1.000000)" fill="#ffffff" opacity="1.000000"></path>
        <path d="M 10.420000 24.640000 L 10.420000 37.480000 L 17.740000 37.480000 Q 19.360000 37.480000 20.860000 37.240000 Q 22.360000 37.000000 23.500000 36.310000 Q 24.640000 35.620000 25.330000 34.360000 Q 26.020000 33.100000 26.020000 31.060000 Q 26.020000 29.020000 25.330000 27.760000 Q 24.640000 26.500000 23.500000 25.810000 Q 22.360000 25.120000 20.860000 24.880000 Q 19.360000 24.640000 17.740000 24.640000 Z M 1.000000 44.800000 L 1.000000 1.960000 L 10.420000 1.960000 L 10.420000 17.320000 L 20.320000 17.320000 Q 24.340000 17.320000 27.160000 18.490000 Q 29.980000 19.660000 31.750000 21.580000 Q 33.520000 23.500000 34.330000 25.990000 Q 35.140000 28.480000 35.140000 31.060000 Q 35.140000 33.700000 34.330000 36.160000 Q 33.520000 38.620000 31.750000 40.540000 Q 29.980000 42.460000 27.160000 43.630000 Q 24.340000 44.800000 20.320000 44.800000 Z M 47.680000 17.440000 Q 47.680000 19.300000 48.040000 21.100000 Q 48.400000 22.900000 49.270000 24.280000 Q 50.140000 25.660000 51.580000 26.530000 Q 53.020000 27.400000 55.180000 27.400000 Q 57.340000 27.400000 58.810000 26.530000 Q 60.280000 25.660000 61.150000 24.280000 Q 62.020000 22.900000 62.380000 21.100000 Q 62.740000 19.300000 62.740000 17.440000 Q 62.740000 15.580000 62.380000 13.810000 Q 62.020000 12.040000 61.150000 10.630000 Q 60.280000 9.220000 58.810000 8.380000 Q 57.340000 7.540000 55.180000 7.540000 Q 53.020000 7.540000 51.580000 8.380000 Q 50.140000 9.220000 49.270000 10.630000 Q 48.400000 12.040000 48.040000 13.810000 Q 47.680000 15.580000 47.680000 17.440000 Z M 39.160000 17.440000 Q 39.160000 13.720000 40.300000 10.720000 Q 41.440000 7.720000 43.540000 5.590000 Q 45.640000 3.460000 48.580000 2.320000 Q 51.520000 1.180000 55.180000 1.180000 Q 58.840000 1.180000 61.810000 2.320000 Q 64.780000 3.460000 66.880000 5.590000 Q 68.980000 7.720000 70.120000 10.720000 Q 71.260000 13.720000 71.260000 17.440000 Q 71.260000 21.160000 70.120000 24.190000 Q 68.980000 27.220000 66.880000 29.350000 Q 64.780000 31.480000 61.810000 32.650000 Q 58.840000 33.820000 55.180000 33.820000 Q 51.520000 33.820000 48.580000 32.650000 Q 45.640000 31.480000 43.540000 29.350000 Q 41.440000 27.220000 40.300000 24.190000 Q 39.160000 21.160000 39.160000 17.440000 Z M 84.340000 17.440000 Q 84.340000 19.300000 84.700000 21.100000 Q 85.060000 22.900000 85.930000 24.280000 Q 86.800000 25.660000 88.240000 26.530000 Q 89.680000 27.400000 91.840000 27.400000 Q 94.000000 27.400000 95.470000 26.530000 Q 96.940000 25.660000 97.810000 24.280000 Q 98.680000 22.900000 99.040000 21.100000 Q 99.400000 19.300000 99.400000 17.440000 Q 99.400000 15.580000 99.040000 13.810000 Q 98.680000 12.040000 97.810000 10.630000 Q 96.940000 9.220000 95.470000 8.380000 Q 94.000000 7.540000 91.840000 7.540000 Q 89.680000 7.540000 88.240000 8.380000 Q 86.800000 9.220000 85.930000 10.630000 Q 85.060000 12.040000 84.700000 13.810000 Q 84.340000 15.580000 84.340000 17.440000 Z M 75.820000 17.440000 Q 75.820000 13.720000 76.960000 10.720000 Q 78.100000 7.720000 80.200000 5.590000 Q 82.300000 3.460000 85.240000 2.320000 Q 88.180000 1.180000 91.840000 1.180000 Q 95.500000 1.180000 98.470000 2.320000 Q 101.440000 3.460000 103.540000 5.590000 Q 105.640000 7.720000 106.780000 10.720000 Q 107.920000 13.720000 107.920000 17.440000 Q 107.920000 21.160000 106.780000 24.190000 Q 105.640000 27.220000 103.540000 29.350000 Q 101.440000 31.480000 98.470000 32.650000 Q 95.500000 33.820000 91.840000 33.820000 Q 88.180000 33.820000 85.240000 32.650000 Q 82.300000 31.480000 80.200000 29.350000 Q 78.100000 27.220000 76.960000 24.190000 Q 75.820000 21.160000 75.820000 17.440000 Z M 113.440000 32.980000 L 113.440000 1.960000 L 121.960000 1.960000 L 121.960000 15.940000 Q 121.960000 18.040000 122.380000 19.840000 Q 122.800000 21.640000 123.790000 22.990000 Q 124.780000 24.340000 126.400000 25.120000 Q 128.020000 25.900000 130.360000 25.900000 Q 131.140000 25.900000 131.980000 25.810000 Q 132.820000 25.720000 133.420000 25.600000 L 133.420000 33.520000 Q 132.400000 33.820000 131.560000 33.820000 Q 129.940000 33.820000 128.440000 33.340000 Q 126.940000 32.860000 125.620000 31.990000 Q 124.300000 31.120000 123.280000 29.890000 Q 122.260000 28.660000 121.660000 27.220000 L 121.540000 27.220000 L 121.540000 32.980000 Z M 182.920000 30.400000 L 192.040000 30.400000 Q 191.620000 34.120000 190.000000 37.000000 Q 188.380000 39.880000 185.890000 41.830000 Q 183.400000 43.780000 180.250000 44.800000 Q 177.100000 45.820000 173.560000 45.820000 Q 168.640000 45.820000 164.710000 44.080000 Q 160.780000 42.340000 158.080000 39.280000 Q 155.380000 36.220000 153.940000 32.110000 Q 152.500000 28.000000 152.500000 23.200000 Q 152.500000 18.520000 153.940000 14.470000 Q 155.380000 10.420000 158.080000 7.420000 Q 160.780000 4.420000 164.710000 2.710000 Q 168.640000 1.000000 173.560000 1.000000 Q 177.520000 1.000000 180.820000 2.200000 Q 184.120000 3.400000 186.580000 5.680000 Q 189.040000 7.960000 190.540000 11.200000 Q 192.040000 14.440000 192.400000 18.460000 L 183.280000 18.460000 Q 182.740000 14.140000 180.310000 11.500000 Q 177.880000 8.860000 173.560000 8.860000 Q 170.380000 8.860000 168.160000 10.090000 Q 165.940000 11.320000 164.560000 13.360000 Q 163.180000 15.400000 162.550000 17.950000 Q 161.920000 20.500000 161.920000 23.200000 Q 161.920000 26.020000 162.550000 28.660000 Q 163.180000 31.300000 164.560000 33.370000 Q 165.940000 35.440000 168.160000 36.670000 Q 170.380000 37.900000 173.560000 37.900000 Q 175.300000 37.900000 176.890000 37.330000 Q 178.480000 36.760000 179.740000 35.740000 Q 181.000000 34.720000 181.840000 33.370000 Q 182.680000 32.020000 182.920000 30.400000 Z M 197.920000 44.800000 L 197.920000 1.960000 L 206.440000 1.960000 L 206.440000 18.220000 Q 206.440000 22.960000 208.000000 25.030000 Q 209.560000 27.100000 213.040000 27.100000 Q 216.100000 27.100000 217.300000 25.210000 Q 218.500000 23.320000 218.500000 19.480000 L 218.500000 1.960000 L 227.020000 1.960000 L 227.020000 21.040000 Q 227.020000 23.920000 226.510000 26.290000 Q 226.000000 28.660000 224.740000 30.310000 Q 223.480000 31.960000 221.290000 32.890000 Q 219.100000 33.820000 215.680000 33.820000 Q 213.280000 33.820000 210.760000 32.590000 Q 208.240000 31.360000 206.620000 28.660000 L 206.440000 28.660000 L 206.440000 44.800000 Z M 241.060000 17.440000 Q 241.060000 19.300000 241.420000 21.100000 Q 241.780000 22.900000 242.650000 24.280000 Q 243.520000 25.660000 244.960000 26.530000 Q 246.400000 27.400000 248.560000 27.400000 Q 250.720000 27.400000 252.190000 26.530000 Q 253.660000 25.660000 254.530000 24.280000 Q 255.400000 22.900000 255.760000 21.100000 Q 256.120000 19.300000 256.120000 17.440000 Q 256.120000 15.580000 255.760000 13.810000 Q 255.400000 12.040000 254.530000 10.630000 Q 253.660000 9.220000 252.190000 8.380000 Q 250.720000 7.540000 248.560000 7.540000 Q 246.400000 7.540000 244.960000 8.380000 Q 243.520000 9.220000 242.650000 10.630000 Q 241.780000 12.040000 241.420000 13.810000 Q 241.060000 15.580000 241.060000 17.440000 Z M 232.540000 17.440000 Q 232.540000 13.720000 233.680000 10.720000 Q 234.820000 7.720000 236.920000 5.590000 Q 239.020000 3.460000 241.960000 2.320000 Q 244.900000 1.180000 248.560000 1.180000 Q 252.220000 1.180000 255.190000 2.320000 Q 258.160000 3.460000 260.260000 5.590000 Q 262.360000 7.720000 263.500000 10.720000 Q 264.640000 13.720000 264.640000 17.440000 Q 264.640000 21.160000 263.500000 24.190000 Q 262.360000 27.220000 260.260000 29.350000 Q 258.160000 31.480000 255.190000 32.650000 Q 252.220000 33.820000 248.560000 33.820000 Q 244.900000 33.820000 241.960000 32.650000 Q 239.020000 31.480000 236.920000 29.350000 Q 234.820000 27.220000 233.680000 24.190000 Q 232.540000 21.160000 232.540000 17.440000 Z M 278.920000 37.780000 L 278.920000 44.800000 L 270.400000 44.800000 L 270.400000 37.780000 Z M 270.400000 32.980000 L 270.400000 1.960000 L 278.920000 1.960000 L 278.920000 32.980000 Z M 306.760000 22.060000 L 315.100000 22.060000 Q 314.920000 25.060000 313.660000 27.250000 Q 312.400000 29.440000 310.390000 30.910000 Q 308.380000 32.380000 305.830000 33.100000 Q 303.280000 33.820000 300.520000 33.820000 Q 296.740000 33.820000 293.800000 32.560000 Q 290.860000 31.300000 288.820000 29.050000 Q 286.780000 26.800000 285.730000 23.710000 Q 284.680000 20.620000 284.680000 17.020000 Q 284.680000 13.540000 285.820000 10.630000 Q 286.960000 7.720000 289.000000 5.620000 Q 291.040000 3.520000 293.950000 2.350000 Q 296.860000 1.180000 300.340000 1.180000 Q 306.520000 1.180000 310.480000 4.420000 Q 314.440000 7.660000 315.280000 13.840000 L 307.060000 13.840000 Q 306.640000 10.960000 304.990000 9.250000 Q 303.340000 7.540000 300.280000 7.540000 Q 298.300000 7.540000 296.920000 8.440000 Q 295.540000 9.340000 294.730000 10.750000 Q 293.920000 12.160000 293.560000 13.900000 Q 293.200000 15.640000 293.200000 17.320000 Q 293.200000 19.060000 293.560000 20.830000 Q 293.920000 22.600000 294.790000 24.070000 Q 295.660000 25.540000 297.040000 26.470000 Q 298.420000 27.400000 300.460000 27.400000 Q 305.920000 27.400000 306.760000 22.060000 Z M 340.960000 20.800000 L 327.100000 20.800000 Q 327.160000 21.700000 327.490000 22.840000 Q 327.820000 23.980000 328.630000 25.000000 Q 329.440000 26.020000 330.790000 26.710000 Q 332.140000 27.400000 334.180000 27.400000 Q 337.300000 27.400000 338.830000 25.720000 Q 340.360000 24.040000 340.960000 20.800000 Z M 327.100000 15.400000 L 349.480000 15.400000 Q 349.720000 19.000000 348.880000 22.300000 Q 348.040000 25.600000 346.150000 28.180000 Q 344.260000 30.760000 341.320000 32.290000 Q 338.380000 33.820000 334.420000 33.820000 Q 330.880000 33.820000 327.970000 32.560000 Q 325.060000 31.300000 322.960000 29.110000 Q 320.860000 26.920000 319.720000 23.920000 Q 318.580000 20.920000 318.580000 17.440000 Q 318.580000 13.840000 319.690000 10.840000 Q 320.800000 7.840000 322.840000 5.680000 Q 324.880000 3.520000 327.820000 2.350000 Q 330.760000 1.180000 334.420000 1.180000 Q 339.700000 1.180000 343.420000 3.580000 Q 347.140000 5.980000 348.940000 11.560000 L 341.440000 11.560000 Q 341.020000 10.120000 339.160000 8.830000 Q 337.300000 7.540000 334.720000 7.540000 Q 331.120000 7.540000 329.200000 9.400000 Q 327.280000 11.260000 327.100000 15.400000 Z M 361.120000 12.040000 L 353.020000 12.040000 Q 353.140000 8.920000 354.430000 6.850000 Q 355.720000 4.780000 357.730000 3.520000 Q 359.740000 2.260000 362.320000 1.720000 Q 364.900000 1.180000 367.600000 1.180000 Q 370.240000 1.180000 372.790000 1.690000 Q 375.340000 2.200000 377.320000 3.460000 Q 379.300000 4.720000 380.530000 6.790000 Q 381.760000 8.860000 381.760000 11.920000 Q 381.760000 14.080000 380.920000 15.550000 Q 380.080000 17.020000 378.700000 18.010000 Q 377.320000 19.000000 375.550000 19.600000 Q 373.780000 20.200000 371.920000 20.620000 Q 370.120000 21.040000 368.380000 21.400000 Q 366.640000 21.760000 365.290000 22.210000 Q 363.940000 22.660000 363.100000 23.380000 Q 362.260000 24.100000 362.260000 25.240000 Q 362.260000 26.200000 362.740000 26.770000 Q 363.220000 27.340000 363.910000 27.640000 Q 364.600000 27.940000 365.440000 28.030000 Q 366.280000 28.120000 367.000000 28.120000 Q 369.280000 28.120000 370.960000 27.250000 Q 372.640000 26.380000 372.820000 23.920000 L 380.920000 23.920000 Q 380.680000 26.800000 379.450000 28.690000 Q 378.220000 30.580000 376.360000 31.720000 Q 374.500000 32.860000 372.130000 33.340000 Q 369.760000 33.820000 367.240000 33.820000 Q 364.720000 33.820000 362.320000 33.370000 Q 359.920000 32.920000 358.000000 31.810000 Q 356.080000 30.700000 354.910000 28.780000 Q 353.740000 26.860000 353.740000 23.860000 Q 353.740000 21.820000 354.580000 20.410000 Q 355.420000 19.000000 356.800000 18.070000 Q 358.180000 17.140000 359.950000 16.570000 Q 361.720000 16.000000 363.580000 15.580000 Q 368.140000 14.620000 370.690000 13.660000 Q 373.240000 12.700000 373.240000 10.780000 Q 373.240000 9.640000 372.700000 8.890000 Q 372.160000 8.140000 371.350000 7.690000 Q 370.540000 7.240000 369.550000 7.030000 Q 368.560000 6.820000 367.660000 6.820000 Q 366.400000 6.820000 365.230000 7.120000 Q 364.060000 7.420000 363.160000 8.050000 Q 362.260000 8.680000 361.690000 9.670000 Q 361.120000 10.660000 361.120000 12.040000 Z" transform="scale(1.000000,1.000000) translate(56.195000,55.957500)" fill="#400b4e" opacity="1.000000"></path>
        <path d="M 131.121400 1.041400 L 134.375000 1.165000 L 137.607100 1.369800 L 140.816900 1.654800 L 144.003200 2.019100 L 147.165100 2.461500 L 150.301600 2.981200 L 153.411600 3.577000 L 156.494300 4.248100 L 159.548600 4.993400 L 162.573500 5.812000 L 165.568000 6.702800 L 168.531100 7.664800 L 171.461900 8.697000 L 174.359200 9.798500 L 177.222200 10.968300 L 180.049800 12.205200 L 182.841100 13.508500 L 185.595000 14.877000 L 188.310500 16.309800 L 190.986700 17.805800 L 193.622500 19.364100 L 196.217000 20.983700 L 198.769100 22.663500 L 201.277900 24.402600 L 203.742300 26.200100 L 206.161500 28.054800 L 208.534200 29.965800 L 210.859700 31.932000 L 213.136800 33.952600 L 215.364700 36.026500 L 217.542200 38.152700 L 219.668400 40.330200 L 221.742300 42.558100 L 223.762900 44.835200 L 225.729100 47.160700 L 227.640100 49.533400 L 229.494800 51.952600 L 231.292300 54.417000 L 233.031400 56.925800 L 234.711200 59.477900 L 236.330800 62.072400 L 237.889100 64.708200 L 239.385100 67.384400 L 240.817900 70.099900 L 242.186400 72.853800 L 243.489700 75.645100 L 244.726600 78.472700 L 245.896400 81.335700 L 246.997900 84.233000 L 248.030100 87.163800 L 248.992100 90.126900 L 249.882900 93.121400 L 250.701500 96.146300 L 251.446800 99.200600 L 252.117900 102.283300 L 252.713700 105.393300 L 253.233400 108.529800 L 253.675800 111.691700 L 254.040100 114.878000 L 254.325100 118.087800 L 254.529900 121.319900 L 254.653500 124.573500 L 254.695000 127.847500 L 254.653500 131.121400 L 254.529900 134.375000 L 254.325100 137.607100 L 254.040100 140.816900 L 253.675800 144.003200 L 253.233400 147.165100 L 252.713700 150.301600 L 252.117900 153.411600 L 251.446800 156.494300 L 250.701500 159.548600 L 249.882900 162.573500 L 248.992100 165.568000 L 248.030100 168.531100 L 246.997900 171.461900 L 245.896400 174.359200 L 244.726600 177.222200 L 243.489700 180.049800 L 242.186400 182.841100 L 240.817900 185.595000 L 239.385100 188.310500 L 237.889100 190.986700 L 236.330800 193.622500 L 234.711200 196.217000 L 233.031400 198.769100 L 231.292300 201.277900 L 229.494800 203.742300 L 227.640100 206.161500 L 225.729100 208.534200 L 223.762900 210.859700 L 221.742300 213.136800 L 219.668400 215.364700 L 217.542200 217.542200 L 215.364700 219.668400 L 213.136800 221.742300 L 210.859700 223.762900 L 208.534200 225.729100 L 206.161500 227.640100 L 203.742300 229.494800 L 201.277900 231.292300 L 198.769100 233.031400 L 196.217000 234.711200 L 193.622500 236.330800 L 190.986700 237.889100 L 188.310500 239.385100 L 185.595000 240.817900 L 182.841100 242.186400 L 180.049800 243.489700 L 177.222200 244.726600 L 174.359200 245.896400 L 171.461900 246.997900 L 168.531100 248.030100 L 165.568000 248.992100 L 162.573500 249.882900 L 159.548600 250.701500 L 156.494300 251.446800 L 153.411600 252.117900 L 150.301600 252.713700 L 147.165100 253.233400 L 144.003200 253.675800 L 140.816900 254.040100 L 137.607100 254.325100 L 134.375000 254.529900 L 131.121400 254.653500 L 127.847500 254.695000 L 124.573500 254.653500 L 121.319900 254.529900 L 118.087800 254.325100 L 114.878000 254.040100 L 111.691700 253.675800 L 108.529800 253.233400 L 105.393300 252.713700 L 102.283300 252.117900 L 99.200600 251.446800 L 96.146300 250.701500 L 93.121400 249.882900 L 90.126900 248.992100 L 87.163800 248.030100 L 84.233000 246.997900 L 81.335700 245.896400 L 78.472700 244.726600 L 75.645100 243.489700 L 72.853800 242.186400 L 70.099900 240.817900 L 67.384400 239.385100 L 64.708200 237.889100 L 62.072400 236.330800 L 59.477900 234.711200 L 56.925800 233.031400 L 54.417000 231.292300 L 51.952600 229.494800 L 49.533400 227.640100 L 47.160700 225.729100 L 44.835200 223.762900 L 42.558100 221.742300 L 40.330200 219.668400 L 38.152700 217.542200 L 36.026500 215.364700 L 33.952600 213.136800 L 31.932000 210.859700 L 29.965800 208.534200 L 28.054800 206.161500 L 26.200100 203.742300 L 24.402600 201.277900 L 22.663500 198.769100 L 20.983700 196.217000 L 19.364100 193.622500 L 17.805800 190.986700 L 16.309800 188.310500 L 14.877000 185.595000 L 13.508500 182.841100 L 12.205200 180.049800 L 10.968300 177.222200 L 9.798500 174.359200 L 8.697000 171.461900 L 7.664800 168.531100 L 6.702800 165.568000 L 5.812000 162.573500 L 4.993400 159.548600 L 4.248100 156.494300 L 3.577000 153.411600 L 2.981200 150.301600 L 2.461500 147.165100 L 2.019100 144.003200 L 1.654800 140.816900 L 1.369800 137.607100 L 1.165000 134.375000 L 1.041400 131.121400 L 0.999900 127.847500 L 1.041400 124.573500 L 1.165000 121.319900 L 1.369800 118.087800 L 1.654800 114.878000 L 2.019100 111.691700 L 2.461500 108.529800 L 2.981200 105.393300 L 3.577000 102.283300 L 4.248100 99.200600 L 4.993400 96.146300 L 5.812000 93.121400 L 6.702800 90.126900 L 7.664800 87.163800 L 8.697000 84.233000 L 9.798500 81.335700 L 10.968300 78.472700 L 12.205200 75.645100 L 13.508500 72.853800 L 14.877000 70.099900 L 16.309800 67.384400 L 17.805800 64.708200 L 19.364100 62.072400 L 20.983700 59.477900 L 22.663500 56.925800 L 24.402600 54.417000 L 26.200100 51.952600 L 28.054800 49.533400 L 29.965800 47.160700 L 31.932000 44.835200 L 33.952600 42.558100 L 36.026500 40.330200 L 38.152700 38.152700 L 40.330200 36.026500 L 42.558100 33.952600 L 44.835200 31.932000 L 47.160700 29.965800 L 49.533400 28.054800 L 51.952600 26.200100 L 54.417000 24.402600 L 56.925800 22.663500 L 59.477900 20.983700 L 62.072400 19.364100 L 64.708200 17.805800 L 67.384400 16.309800 L 70.099900 14.877000 L 72.853800 13.508500 L 75.645100 12.205200 L 78.472700 10.968300 L 81.335700 9.798500 L 84.233000 8.697000 L 87.163800 7.664800 L 90.126900 6.702800 L 93.121400 5.812000 L 96.146300 4.993400 L 99.200600 4.248100 L 102.283300 3.577000 L 105.393300 2.981200 L 108.529800 2.461500 L 111.691700 2.019100 L 114.878000 1.654800 L 118.087800 1.369800 L 121.319900 1.165000 L 124.573500 1.041400 L 127.847500 1.000000 Z M 177.556100 71.826600 L 176.038000 71.860000 L 174.539100 71.926800 L 173.059600 72.027000 L 171.599500 72.160600 L 170.158700 72.327600 L 168.737200 72.528000 L 167.335000 72.761800 L 165.952200 73.029000 L 164.588700 73.329600 L 163.244600 73.663500 L 161.919800 74.030900 L 160.614300 74.431700 L 159.328200 74.865900 L 158.061400 75.333500 L 156.813900 75.834400 L 156.197500 76.097500 L 155.586400 76.367800 L 154.382300 76.927400 L 153.202200 77.512100 L 152.046200 78.122100 L 150.914100 78.757200 L 149.806100 79.417600 L 148.722100 80.103100 L 147.662200 80.813900 L 146.626200 81.549800 L 145.614300 82.311000 L 144.626400 83.097300 L 143.662600 83.908800 L 142.722700 84.745500 L 141.806900 85.607400 L 140.915100 86.494500 L 140.047300 87.406800 L 139.622400 87.872500 L 139.203700 88.343800 L 138.384500 89.301800 L 137.590000 90.280300 L 136.820100 91.279300 L 136.074700 92.298800 L 135.354000 93.338900 L 134.657900 94.399400 L 133.986500 95.480500 L 133.339600 96.582000 L 132.717300 97.704100 L 132.119700 98.846700 L 131.546600 100.009800 L 130.998200 101.193400 L 130.474400 102.397500 L 129.975100 103.622100 L 129.500500 104.867200 L 129.272500 105.497500 L 129.051000 106.131800 L 128.629100 107.409700 L 128.235300 108.700000 L 127.869700 110.002500 L 127.532200 111.317300 L 127.222800 112.644500 L 126.941600 113.983900 L 126.688500 115.335700 L 126.463500 116.699800 L 126.266600 118.076100 L 126.097800 119.464800 L 125.957200 120.865800 L 125.844700 122.279100 L 125.760300 123.704700 L 125.704100 125.142500 L 125.676000 126.592700 L 125.672500 127.322500 L 125.676000 128.070800 L 125.704100 129.557300 L 125.760300 131.030300 L 125.844700 132.489900 L 125.957200 133.936000 L 126.097800 135.368600 L 126.266600 136.787800 L 126.463500 138.193400 L 126.688500 139.585600 L 126.941600 140.964300 L 127.222800 142.329600 L 127.532200 143.681300 L 127.869700 145.019600 L 128.235300 146.344400 L 128.629100 147.655700 L 129.051000 148.953600 L 129.272500 149.597500 L 129.500500 150.237100 L 129.975100 151.500900 L 130.474400 152.744300 L 130.998200 153.967200 L 131.546600 155.169500 L 132.119700 156.351300 L 132.717300 157.512700 L 133.339600 158.653500 L 133.986500 159.773800 L 134.657900 160.873600 L 135.354000 161.952900 L 136.074700 163.011700 L 136.820100 164.050000 L 137.590000 165.067700 L 138.384500 166.065000 L 139.203700 167.041800 L 139.622400 167.522500 L 140.047300 167.997400 L 140.915100 168.927800 L 141.806900 169.832500 L 142.722700 170.711400 L 143.662600 171.564500 L 144.626400 172.391900 L 145.614300 173.193400 L 146.626200 173.969200 L 147.662200 174.719200 L 148.722100 175.443400 L 149.806100 176.141900 L 150.914100 176.814500 L 152.046200 177.461400 L 153.202200 178.082500 L 154.382300 178.677800 L 155.586400 179.247400 L 156.197500 179.522500 L 156.813900 179.790100 L 158.061400 180.299800 L 159.328200 180.775600 L 160.614300 181.217400 L 161.919800 181.625200 L 163.244600 181.999100 L 164.588700 182.338900 L 165.952200 182.644800 L 167.335000 182.916600 L 168.737200 183.154500 L 170.158700 183.358400 L 171.599500 183.528400 L 173.059600 183.664300 L 174.539100 183.766200 L 176.038000 183.834200 L 177.556100 183.868200 L 178.322500 183.872500 L 178.874600 183.870000 L 179.973300 183.850000 L 181.064300 183.810200 L 182.147700 183.750400 L 183.223500 183.670700 L 184.291600 183.571100 L 185.352200 183.451600 L 186.405100 183.312100 L 187.450400 183.152800 L 188.488100 182.973500 L 189.518200 182.774300 L 190.540600 182.555100 L 191.555500 182.316100 L 192.562700 182.057100 L 193.562300 181.778200 L 194.554300 181.479300 L 195.047500 181.322500 L 195.538000 181.160800 L 196.509500 180.823900 L 197.468100 180.468800 L 198.413800 180.095600 L 199.346600 179.704200 L 200.266500 179.294600 L 201.173600 178.866900 L 202.067700 178.421000 L 202.949000 177.956900 L 203.817300 177.474700 L 204.672800 176.974300 L 205.515400 176.455700 L 206.345100 175.919000 L 207.161900 175.364100 L 207.965800 174.791100 L 208.756800 174.199900 L 209.147500 173.897500 L 209.534400 173.590500 L 210.295500 172.963000 L 211.039700 172.317200 L 211.766800 171.653400 L 212.477000 170.971400 L 213.170100 170.271200 L 213.846300 169.552800 L 214.505500 168.816300 L 215.147700 168.061600 L 215.772900 167.288700 L 216.381100 166.497700 L 216.972300 165.688500 L 217.546500 164.861200 L 218.103700 164.015700 L 218.644000 163.152000 L 219.167200 162.270200 L 219.422500 161.822500 L 219.672600 161.370400 L 220.155500 160.454000 L 220.614800 159.521200 L 221.050800 158.572000 L 221.463300 157.606300 L 221.852300 156.624300 L 222.218000 155.625900 L 222.560100 154.611000 L 222.878900 153.579800 L 223.174200 152.532100 L 223.446100 151.468100 L 223.694500 150.387600 L 223.919500 149.290700 L 224.121100 148.177400 L 224.299200 147.047700 L 224.453900 145.901600 L 224.522500 145.322500 L 201.722500 145.322500 L 201.641600 145.826100 L 201.444700 146.817500 L 201.201000 147.787800 L 200.910300 148.737000 L 200.572800 149.665100 L 200.188500 150.572200 L 199.757200 151.458100 L 199.279100 152.322900 L 199.022500 152.747500 L 198.755800 153.166100 L 198.198000 153.984100 L 197.607400 154.776300 L 196.984000 155.542700 L 196.327700 156.283300 L 195.638700 156.998100 L 194.916800 157.687200 L 194.162100 158.350500 L 193.772500 158.672500 L 193.375500 158.986800 L 192.562200 159.589100 L 191.723100 160.156300 L 190.858300 160.688400 L 189.967700 161.185200 L 189.051300 161.647000 L 188.109100 162.073500 L 187.141100 162.464900 L 186.647500 162.647500 L 186.149100 162.820000 L 185.143600 163.131700 L 184.126500 163.398900 L 183.097500 163.621600 L 182.056900 163.799700 L 181.004600 163.933300 L 179.940500 164.022400 L 178.864700 164.066900 L 178.322500 164.072500 L 177.827900 164.069400 L 176.852900 164.045400 L 175.896700 163.997400 L 174.959200 163.925300 L 174.040400 163.829200 L 173.140400 163.709100 L 172.259200 163.565000 L 171.396700 163.396800 L 170.552900 163.204600 L 169.727900 162.988400 L 168.921700 162.748200 L 168.134200 162.483900 L 167.365400 162.195600 L 166.615400 161.883300 L 165.884200 161.547000 L 165.171700 161.186600 L 164.822500 160.997500 L 164.477600 160.803200 L 163.800300 160.402400 L 163.139300 159.985200 L 162.494800 159.551600 L 161.866700 159.101600 L 161.255000 158.635200 L 160.659700 158.152400 L 160.080800 157.653200 L 159.518300 157.137600 L 158.972200 156.605600 L 158.442500 156.057100 L 157.929200 155.492300 L 157.432300 154.911000 L 156.951800 154.313400 L 156.487800 153.699300 L 156.040100 153.068800 L 155.822500 152.747500 L 155.608700 152.422600 L 155.192100 151.764600 L 154.790100 151.095500 L 154.402800 150.415200 L 154.030100 149.723800 L 153.672100 149.021300 L 153.328800 148.307600 L 153.000100 147.582800 L 152.686000 146.846800 L 152.386600 146.099800 L 152.101800 145.341600 L 151.831700 144.572200 L 151.576200 143.791800 L 151.335400 143.000200 L 151.109200 142.197400 L 150.897700 141.383600 L 150.797500 140.972500 L 150.606700 140.145700 L 150.262200 138.481600 L 149.966900 136.803500 L 149.720800 135.111300 L 149.523900 133.405100 L 149.376300 131.684800 L 149.277800 129.950400 L 149.228600 128.201900 L 149.222500 127.322500 L 149.228600 126.480200 L 149.277800 124.804400 L 149.376300 123.140300 L 149.523900 121.488000 L 149.720800 119.847400 L 149.966900 118.218400 L 150.262200 116.601300 L 150.606700 114.995800 L 150.797500 114.197500 L 150.897700 113.800300 L 151.109200 113.013300 L 151.335400 112.236400 L 151.576200 111.469400 L 151.831700 110.712400 L 152.101800 109.965300 L 152.386600 109.228200 L 152.686000 108.501000 L 153.000100 107.783900 L 153.328800 107.076600 L 153.672100 106.379400 L 154.030100 105.692100 L 154.402800 105.014700 L 154.790100 104.347300 L 155.192100 103.689900 L 155.608700 103.042400 L 155.822500 102.722500 L 156.040100 102.405700 L 156.487800 101.784000 L 156.951800 101.178100 L 157.432300 100.588100 L 157.929200 100.013900 L 158.442500 99.455500 L 158.972200 98.912900 L 159.518300 98.386100 L 160.080800 97.875200 L 160.659700 97.380100 L 161.255000 96.900800 L 161.866700 96.437300 L 162.494800 95.989700 L 163.139300 95.557800 L 163.800300 95.141800 L 164.477600 94.741600 L 164.822500 94.547500 L 165.171700 94.358300 L 165.884200 93.997900 L 166.615400 93.661600 L 167.365400 93.349300 L 168.134200 93.061000 L 168.921700 92.796700 L 169.727900 92.556500 L 170.552900 92.340300 L 171.396700 92.148100 L 172.259200 91.979900 L 173.140400 91.835800 L 174.040400 91.715700 L 174.959200 91.619600 L 175.896700 91.547500 L 176.852900 91.499500 L 177.827900 91.475500 L 178.322500 91.472500 L 178.992800 91.478900 L 180.305900 91.530500 L 181.582100 91.633600 L 182.821400 91.788300 L 184.023700 91.994500 L 185.189100 92.252300 L 186.317600 92.561700 L 187.409200 92.922600 L 188.463900 93.335100 L 189.481700 93.799200 L 190.462600 94.314800 L 191.406500 94.882000 L 192.313500 95.500800 L 193.183700 96.171100 L 194.016900 96.893000 L 194.813100 97.666400 L 195.197500 98.072500 L 195.572500 98.489100 L 196.295000 99.346900 L 196.980500 100.237500 L 197.629200 101.160900 L 198.240900 102.117200 L 198.815700 103.106200 L 199.353600 104.128100 L 199.854600 105.182800 L 200.318600 106.270300 L 200.745800 107.390600 L 201.136000 108.543700 L 201.489300 109.729700 L 201.805700 110.948400 L 202.085200 112.200000 L 202.327800 113.484400 L 202.533500 114.801600 L 202.622400 115.472500 L 225.422500 115.472500 L 225.363400 114.846200 L 225.228700 113.605200 L 225.071600 112.379400 L 224.892300 111.168900 L 224.690800 109.973600 L 224.466900 108.793500 L 224.220800 107.628700 L 223.952500 106.479000 L 223.661900 105.344700 L 223.349000 104.225500 L 223.013800 103.121600 L 222.656400 102.032900 L 222.276700 100.959500 L 221.874700 99.901300 L 221.450500 98.858300 L 221.004000 97.830600 L 220.772500 97.322500 L 220.535700 96.818500 L 220.048200 95.824800 L 219.542000 94.849800 L 219.017000 93.893500 L 218.473200 92.956000 L 217.910700 92.037300 L 217.329500 91.137300 L 216.729500 90.256000 L 216.110700 89.393500 L 215.473200 88.549800 L 214.817000 87.724800 L 214.142000 86.918500 L 213.448200 86.131000 L 212.735700 85.362300 L 212.004500 84.612300 L 211.254500 83.881000 L 210.872400 83.522500 L 210.486000 83.168800 L 209.700900 82.477400 L 208.899300 81.807100 L 208.081300 81.157900 L 207.247000 80.529800 L 206.396200 79.922700 L 205.529000 79.336800 L 204.645400 78.772000 L 203.745400 78.228200 L 202.829000 77.705600 L 201.896200 77.204000 L 200.947000 76.723500 L 199.981300 76.264100 L 198.999300 75.825900 L 198.000900 75.408700 L 196.986000 75.012600 L 196.472500 74.822500 L 195.955200 74.637900 L 194.911100 74.286300 L 193.854000 73.958200 L 192.784100 73.653500 L 191.701300 73.372300 L 190.605600 73.114400 L 189.497000 72.880100 L 188.375500 72.669100 L 187.241200 72.481600 L 186.093900 72.317600 L 184.933700 72.176900 L 183.760700 72.059800 L 182.574700 71.966000 L 181.375900 71.895700 L 180.164200 71.848800 L 178.939600 71.825400 L 178.322500 71.822500 Z M 30.272500 74.222500 L 30.272500 181.322500 L 78.572400 181.322500 L 79.197600 181.319600 L 80.430500 181.296700 L 81.639800 181.251000 L 82.825800 181.182500 L 83.988300 181.091100 L 85.127300 180.976800 L 86.243000 180.839700 L 87.335100 180.679700 L 88.403900 180.496900 L 89.449200 180.291300 L 90.471100 180.062800 L 91.469500 179.811400 L 92.444500 179.537200 L 93.396100 179.240100 L 94.324200 178.920200 L 95.228900 178.577400 L 95.672500 178.397500 L 96.110500 178.212800 L 96.971300 177.832500 L 97.811500 177.437600 L 98.631200 177.028000 L 99.430400 176.603800 L 100.209100 176.165000 L 100.967300 175.711400 L 101.705000 175.243300 L 102.422200 174.760500 L 103.118900 174.263000 L 103.795100 173.750900 L 104.450700 173.224100 L 105.085900 172.682700 L 105.700600 172.126700 L 106.294700 171.556000 L 106.868300 170.970600 L 107.147500 170.672500 L 107.421700 170.371100 L 107.956000 169.760600 L 108.471700 169.139500 L 108.968500 168.507900 L 109.446700 167.865700 L 109.906000 167.212900 L 110.346700 166.549600 L 110.768500 165.875800 L 111.171700 165.191400 L 111.556000 164.496500 L 111.921700 163.791100 L 112.268500 163.075000 L 112.596700 162.348500 L 112.906000 161.611400 L 113.196700 160.863700 L 113.468500 160.105500 L 113.597500 159.722500 L 113.722000 159.337600 L 113.959300 158.565400 L 114.180800 157.789600 L 114.386500 157.010300 L 114.576300 156.227500 L 114.750400 155.441200 L 114.908600 154.651300 L 115.050900 153.857900 L 115.177500 153.061100 L 115.288200 152.260700 L 115.383200 151.456800 L 115.462300 150.649400 L 115.525600 149.838400 L 115.573000 149.024000 L 115.604700 148.206000 L 115.620500 147.384500 L 115.622500 146.972500 L 115.620500 146.569500 L 115.604700 145.765100 L 115.573000 144.962300 L 115.525600 144.161300 L 115.462300 143.362100 L 115.383200 142.564700 L 115.288200 141.769000 L 115.177500 140.975000 L 115.050900 140.182800 L 114.908600 139.392400 L 114.750400 138.603700 L 114.576300 137.816800 L 114.386500 137.031700 L 114.180800 136.248300 L 113.959300 135.466600 L 113.722000 134.686700 L 113.597500 134.297500 L 113.468500 133.909800 L 113.196700 133.142800 L 112.906000 132.386900 L 112.596700 131.642200 L 112.268500 130.908600 L 111.921700 130.186100 L 111.556000 129.474800 L 111.171700 128.774600 L 110.768500 128.085600 L 110.346700 127.407600 L 109.906000 126.740800 L 109.446700 126.085200 L 108.968500 125.440600 L 108.471700 124.807200 L 107.956000 124.185000 L 107.421700 123.573800 L 107.147500 123.272500 L 106.868300 122.974300 L 106.294700 122.388900 L 105.700600 121.818200 L 105.085900 121.262200 L 104.450700 120.720800 L 103.795100 120.194000 L 103.118900 119.681900 L 102.422200 119.184400 L 101.705000 118.701600 L 100.967300 118.233500 L 100.209100 117.779900 L 99.430400 117.341100 L 98.631200 116.916900 L 97.811500 116.507300 L 96.971300 116.112400 L 96.110500 115.732100 L 95.672500 115.547500 L 95.228900 115.367500 L 94.324200 115.024700 L 93.396100 114.704800 L 92.444500 114.407700 L 91.469500 114.133500 L 90.471100 113.882100 L 89.449200 113.653600 L 88.403900 113.448000 L 87.335100 113.265200 L 86.243000 113.105200 L 85.127300 112.968100 L 83.988300 112.853800 L 82.825800 112.762400 L 81.639800 112.693900 L 80.430500 112.648200 L 79.197600 112.625300 L 78.572400 112.622500 L 53.822500 112.622500 L 53.822500 74.222500 Z M 72.122500 130.922500 L 72.627500 130.924800 L 73.630700 130.943500 L 74.624400 130.981000 L 75.608800 131.037300 L 76.583800 131.112300 L 77.549400 131.206000 L 78.505700 131.318500 L 79.452500 131.449800 L 79.922400 131.522500 L 80.387700 131.601800 L 81.297100 131.787000 L 82.178300 132.007300 L 83.031400 132.262800 L 83.856400 132.553400 L 84.653300 132.879200 L 85.422100 133.240100 L 86.162700 133.636200 L 86.522500 133.847500 L 86.874300 134.068600 L 87.551600 134.544400 L 88.193800 135.064700 L 88.800900 135.629600 L 89.372700 136.239000 L 89.909500 136.892900 L 90.411000 137.591300 L 90.877400 138.334300 L 91.097500 138.722500 L 91.306300 139.123800 L 91.683700 139.972300 L 92.007100 140.881600 L 92.276600 141.851900 L 92.492300 142.883200 L 92.654000 143.975400 L 92.761800 145.128500 L 92.815700 146.342600 L 92.822500 146.972500 L 92.815700 147.602300 L 92.761800 148.816400 L 92.654000 149.969500 L 92.492300 151.061700 L 92.276600 152.093000 L 92.007100 153.063300 L 91.683700 153.972600 L 91.306300 154.821100 L 91.097500 155.222500 L 90.877400 155.610600 L 90.411000 156.353600 L 89.909500 157.052000 L 89.372700 157.705900 L 88.800900 158.315300 L 88.193800 158.880200 L 87.551600 159.400500 L 86.874300 159.876300 L 86.522500 160.097500 L 86.162700 160.308700 L 85.422100 160.704800 L 84.653300 161.065700 L 83.856400 161.391500 L 83.031400 161.682100 L 82.178300 161.937600 L 81.297100 162.157900 L 80.387700 162.343100 L 79.922400 162.422500 L 79.452500 162.495100 L 78.505700 162.626400 L 77.549400 162.738900 L 76.583800 162.832600 L 75.608800 162.907600 L 74.624400 162.963900 L 73.630700 163.001400 L 72.627500 163.020100 L 72.122500 163.022500 L 53.822500 163.022500 L 53.822500 130.922500 Z" transform="scale(1.000000,1.000000) translate(119.727500,120.777500)" fill="#400b4e" opacity="1.000000"></path>
    </g>
</svg>